<svg width="56" height="56" viewBox="0 0 56 56" fill="none" xmlns="http://www.w3.org/2000/svg">
<g opacity="0.2">
<path fill-rule="evenodd" clip-rule="evenodd" d="M23 2.88675C26.094 1.10042 29.906 1.10042 33 2.88675L47.2487 11.1132C50.3427 12.8996 52.2487 16.2008 52.2487 19.7735V36.2265C52.2487 39.7992 50.3427 43.1004 47.2487 44.8868L33 53.1133C29.906 54.8996 26.094 54.8996 23 53.1133L8.75129 44.8867C5.65728 43.1004 3.75129 39.7992 3.75129 36.2265V19.7735C3.75129 16.2008 5.65728 12.8996 8.75129 11.1132L23 2.88675Z" fill="white"/>
<mask id="mask0" mask-type="alpha" maskUnits="userSpaceOnUse" x="3" y="1" width="50" height="54">
<path fill-rule="evenodd" clip-rule="evenodd" d="M23 2.88675C26.094 1.10042 29.906 1.10042 33 2.88675L47.2487 11.1132C50.3427 12.8996 52.2487 16.2008 52.2487 19.7735V36.2265C52.2487 39.7992 50.3427 43.1004 47.2487 44.8868L33 53.1133C29.906 54.8996 26.094 54.8996 23 53.1133L8.75129 44.8867C5.65728 43.1004 3.75129 39.7992 3.75129 36.2265V19.7735C3.75129 16.2008 5.65728 12.8996 8.75129 11.1132L23 2.88675Z" fill="white"/>
</mask>
<g mask="url(#mask0)">
</g>
</g>
<path d="M36.75 18C37.4404 18 38 18.5596 38 19.25V21.75C38 22.4404 37.4404 23 36.75 23C36.0596 23 35.5 22.4404 35.5 21.75V19.25C35.5 18.5596 36.0596 18 36.75 18Z" fill="white"/>
<path d="M29.25 34.25C29.25 33.5596 28.6904 33 28 33C27.3096 33 26.75 33.5596 26.75 34.25V36.75C26.75 37.4404 27.3096 38 28 38C28.6904 38 29.25 37.4404 29.25 36.75L29.25 34.25Z" fill="white"/>
<path d="M28 18C28.6904 18 29.25 18.5596 29.25 19.25L29.25 24.25C29.25 24.9404 28.6904 25.5 28 25.5C27.3096 25.5 26.75 24.9404 26.75 24.25V19.25C26.75 18.5596 27.3096 18 28 18Z" fill="white"/>
<path d="M20.5 19.25C20.5 18.5596 19.9404 18 19.25 18C18.5596 18 18 18.5596 18 19.25L18 24.25C18 24.9404 18.5596 25.5 19.25 25.5C19.9404 25.5 20.5 24.9404 20.5 24.25V19.25Z" fill="white"/>
<path d="M20.5 34.25C20.5 33.5596 19.9404 33 19.25 33C18.5596 33 18 33.5596 18 34.25L18 36.75C18 37.4404 18.5596 38 19.25 38C19.9404 38 20.5 37.4404 20.5 36.75L20.5 34.25Z" fill="white"/>
<path d="M38 31.75C38 31.0596 37.4404 30.5 36.75 30.5C36.0596 30.5 35.5 31.0596 35.5 31.75L35.5 36.75C35.5 37.4404 36.0596 38 36.75 38C37.4404 38 38 37.4404 38 36.75V31.75Z" fill="white"/>
<path d="M33 24.25C33 26.3211 34.6789 28 36.75 28C38.8211 28 40.5 26.3211 40.5 24.25C40.5 22.1789 38.8211 20.5 36.75 20.5C34.6789 20.5 33 22.1789 33 24.25Z" fill="white"/>
<path d="M28 35.5C25.9289 35.5 24.25 33.8211 24.25 31.75C24.25 29.6789 25.9289 28 28 28C30.0711 28 31.75 29.6789 31.75 31.75C31.75 33.8211 30.0711 35.5 28 35.5Z" fill="white"/>
<path d="M19.25 30.5C17.1789 30.5 15.5 28.8211 15.5 26.75C15.5 24.6789 17.1789 23 19.25 23C21.3211 23 23 24.6789 23 26.75C23 28.8211 21.3211 30.5 19.25 30.5Z" fill="white"/>
</svg>
