<svg width="30" height="30" viewBox="0 0 30 30" fill="none" xmlns="http://www.w3.org/2000/svg">
<path d="M1.21216 21.2537C0.797945 21.2537 0.462158 21.5895 0.462158 22.0037C0.462158 22.4179 0.797945 22.7537 1.21216 22.7537L1.21216 21.2537ZM5.41216 10.8017L4.66216 10.8017V10.8017L5.41216 10.8017ZM25.0122 10.8017H25.7622V10.8017L25.0122 10.8017ZM17.6341 27.6048L18.2829 27.9811C18.4174 27.7491 18.4179 27.4629 18.284 27.2305C18.1501 26.998 17.9023 26.8548 17.6341 26.8548V27.6048ZM12.7901 27.6048V26.8548C12.5219 26.8548 12.2741 26.998 12.1402 27.2305C12.0063 27.4629 12.0068 27.7491 12.1413 27.9811L12.7901 27.6048ZM29.2122 21.2537L1.21216 21.2537L1.21216 22.7537L29.2122 22.7537V21.2537ZM1.21216 22.7537C3.94609 22.7537 6.16216 20.5371 6.16216 17.803H4.66216C4.66216 19.7089 3.11742 21.2537 1.21216 21.2537L1.21216 22.7537ZM6.16216 17.803L6.16216 10.8017L4.66216 10.8017L4.66216 17.803H6.16216ZM6.16216 10.8017C6.16216 5.80247 10.2141 1.75 15.2122 1.75V0.25C9.38543 0.25 4.66216 4.9743 4.66216 10.8017L6.16216 10.8017ZM15.2122 1.75C20.2102 1.75 24.2622 5.80247 24.2622 10.8017L25.7622 10.8017C25.7622 4.9743 21.0389 0.25 15.2122 0.25V1.75ZM24.2622 10.8017V17.803L25.7622 17.803V10.8017H24.2622ZM24.2622 17.803C24.2622 20.5371 26.4782 22.7537 29.2122 22.7537V21.2537C27.3069 21.2537 25.7622 19.7089 25.7622 17.803L24.2622 17.803ZM16.9853 27.2285C16.6185 27.8609 15.9429 28.2501 15.2121 28.2501L15.2121 29.7501C16.4779 29.7501 17.6478 29.0761 18.2829 27.9811L16.9853 27.2285ZM15.2121 28.2501C14.4813 28.2501 13.8057 27.8609 13.4389 27.2285L12.1413 27.9811C12.7764 29.0761 13.9463 29.7501 15.2121 29.7501L15.2121 28.2501ZM12.7901 28.3548H17.6341V26.8548H12.7901V28.3548Z" fill="white"/>
</svg>
