<svg width="56" height="56" viewBox="0 0 56 56" fill="none" xmlns="http://www.w3.org/2000/svg">
<g opacity="0.2">
<path fill-rule="evenodd" clip-rule="evenodd" d="M23 2.88675C26.094 1.10042 29.906 1.10042 33 2.88675L47.2487 11.1132C50.3427 12.8996 52.2487 16.2008 52.2487 19.7735V36.2265C52.2487 39.7992 50.3427 43.1004 47.2487 44.8868L33 53.1133C29.906 54.8996 26.094 54.8996 23 53.1133L8.75129 44.8867C5.65728 43.1004 3.75129 39.7992 3.75129 36.2265V19.7735C3.75129 16.2008 5.65728 12.8996 8.75129 11.1132L23 2.88675Z" fill="white"/>
<mask id="mask0" mask-type="alpha" maskUnits="userSpaceOnUse" x="3" y="1" width="50" height="54">
<path fill-rule="evenodd" clip-rule="evenodd" d="M23 2.88675C26.094 1.10042 29.906 1.10042 33 2.88675L47.2487 11.1132C50.3427 12.8996 52.2487 16.2008 52.2487 19.7735V36.2265C52.2487 39.7992 50.3427 43.1004 47.2487 44.8868L33 53.1133C29.906 54.8996 26.094 54.8996 23 53.1133L8.75129 44.8867C5.65728 43.1004 3.75129 39.7992 3.75129 36.2265V19.7735C3.75129 16.2008 5.65728 12.8996 8.75129 11.1132L23 2.88675Z" fill="white"/>
</mask>
<g mask="url(#mask0)">
</g>
</g>
<path d="M16.75 31.125C16.75 35.6123 20.3877 39.25 24.875 39.25C29.3623 39.25 33 35.6123 33 31.125C33 26.6377 29.3623 23 24.875 23C20.3877 23 16.75 26.6377 16.75 31.125Z" fill="white"/>
<path d="M24.612 20.0161C24.4597 20.2199 24.6203 20.5 24.8746 20.5C30.7427 20.5 35.4996 25.257 35.4996 31.125C35.4996 31.3794 35.7798 31.5399 35.9835 31.3877C37.9662 29.9061 39.2496 27.5404 39.2496 24.875C39.2496 20.3877 35.6119 16.75 31.1246 16.75C28.4592 16.75 26.0935 18.0335 24.612 20.0161Z" fill="white"/>
</svg>
