<svg width="56" height="56" viewBox="0 0 56 56" fill="none" xmlns="http://www.w3.org/2000/svg">
<g opacity="0.2">
<path fill-rule="evenodd" clip-rule="evenodd" d="M23 2.88675C26.094 1.10042 29.906 1.10042 33 2.88675L47.2487 11.1132C50.3427 12.8996 52.2487 16.2008 52.2487 19.7735V36.2265C52.2487 39.7992 50.3427 43.1004 47.2487 44.8868L33 53.1133C29.906 54.8996 26.094 54.8996 23 53.1133L8.75129 44.8867C5.65728 43.1004 3.75129 39.7992 3.75129 36.2265V19.7735C3.75129 16.2008 5.65728 12.8996 8.75129 11.1132L23 2.88675Z" fill="white"/>
<mask id="mask0" mask-type="alpha" maskUnits="userSpaceOnUse" x="3" y="1" width="50" height="54">
<path fill-rule="evenodd" clip-rule="evenodd" d="M23 2.88675C26.094 1.10042 29.906 1.10042 33 2.88675L47.2487 11.1132C50.3427 12.8996 52.2487 16.2008 52.2487 19.7735V36.2265C52.2487 39.7992 50.3427 43.1004 47.2487 44.8868L33 53.1133C29.906 54.8996 26.094 54.8996 23 53.1133L8.75129 44.8867C5.65728 43.1004 3.75129 39.7992 3.75129 36.2265V19.7735C3.75129 16.2008 5.65728 12.8996 8.75129 11.1132L23 2.88675Z" fill="white"/>
</mask>
<g mask="url(#mask0)">
</g>
</g>
<path fill-rule="evenodd" clip-rule="evenodd" d="M36.2501 17.0001C36.8024 17.4143 36.9143 18.1978 36.5001 18.7501L21.5001 38.7501C21.0859 39.3024 20.3024 39.4143 19.7501 39.0001C19.1978 38.5859 19.0859 37.8024 19.5001 37.2501L34.5001 17.2501C34.9143 16.6978 35.6978 16.5859 36.2501 17.0001Z" fill="white"/>
<path fill-rule="evenodd" clip-rule="evenodd" d="M20.5 24.25C22.5711 24.25 24.25 22.5711 24.25 20.5C24.25 18.4289 22.5711 16.75 20.5 16.75C18.4289 16.75 16.75 18.4289 16.75 20.5C16.75 22.5711 18.4289 24.25 20.5 24.25ZM35.5 39.25C37.5711 39.25 39.25 37.5711 39.25 35.5C39.25 33.4289 37.5711 31.75 35.5 31.75C33.4289 31.75 31.75 33.4289 31.75 35.5C31.75 37.5711 33.4289 39.25 35.5 39.25Z" fill="white"/>
</svg>
