<svg width="331" height="243" viewBox="0 0 331 243" fill="none" xmlns="http://www.w3.org/2000/svg">
<g opacity="0.05">
<path d="M38.417 -102C20.0057 -71.7746 7.95399 -37.6835 3.273 -2.59067C0.377184 19.1201 1.39318 44.0198 17.3531 58.9976C29.3138 70.2249 46.9451 73.0179 63.328 72.4144C79.7108 71.811 96.0014 68.3629 112.366 69.3263C128.731 70.2909 146.061 76.7599 154.363 90.9159C162.221 104.311 160.264 120.999 159.301 136.504C158.34 152.011 159.496 169.614 171.182 179.831C187.733 194.3 214.7 185.359 234.21 195.476C252.715 205.07 260.229 229.549 279.296 237.966C295.233 245.004 313.577 238.464 329.695 231.857C346.499 224.968 363.267 217.995 380 210.937" stroke="white" stroke-width="2.3"/>
<path d="M57.6463 -122C39.6263 -92.479 27.8284 -59.1845 23.2458 -24.9097C20.4118 -3.70514 21.406 20.6139 37.0285 35.2431C48.7352 46.2079 65.9936 48.9365 82.0299 48.3457C98.065 47.7574 114.011 44.3888 130.031 45.3307C146.05 46.2726 163.012 52.5914 171.139 66.4154C178.83 79.5001 176.915 95.7974 175.972 110.942C175.031 126.087 176.162 143.278 187.602 153.258C203.803 167.39 230.199 158.657 249.296 168.538C267.408 177.909 274.764 201.815 293.428 210.038C309.027 216.91 326.983 210.524 342.761 204.071C359.208 197.342 375.622 190.532 392 183.639" stroke="white" stroke-width="2.3"/>
<path d="M75.8755 -142C58.2433 -113.095 46.7017 -80.4968 42.2198 -46.9379C39.4452 -26.1763 40.4189 -2.36545 55.7028 11.9578C67.1578 22.6927 84.0433 25.3639 99.7317 24.7864C115.421 24.209 131.022 20.9124 146.695 21.8344C162.368 22.7563 178.963 28.9426 186.914 42.4783C194.44 55.2889 192.565 71.246 191.644 86.0747C190.722 100.902 191.829 117.734 203.022 127.505C218.872 141.342 244.696 132.792 263.382 142.467C281.103 151.643 288.299 175.049 306.558 183.1C321.82 189.828 339.388 183.575 354.825 177.257C370.916 170.668 386.975 164.001 403 157.252" stroke="white" stroke-width="2.3"/>
<path d="M95.0095 -162C77.8149 -133.801 66.5616 -101.997 62.1893 -69.2569C59.4841 -49.0016 60.4334 -25.7715 75.3375 -11.7979C86.5081 -1.32431 102.973 1.28239 118.271 0.718842C133.571 0.155294 148.784 -3.06172 164.067 -2.16124C179.35 -1.26196 195.533 4.77279 203.287 17.979C210.625 30.4777 208.798 46.0448 207.899 60.5112C207 74.9788 208.08 91.3996 218.993 100.932C234.449 114.431 259.633 106.09 277.853 115.528C295.134 124.48 302.149 147.315 319.956 155.17C334.838 161.735 351.971 155.634 367.022 149.47C382.714 143.043 398.373 136.537 414 129.952" stroke="white" stroke-width="2.3"/>
<path d="M113.239 -183C96.4343 -155.417 85.4349 -124.31 81.162 -92.285C78.5187 -72.4738 79.4462 -49.7518 94.0129 -36.083C104.93 -25.8392 121.021 -23.29 135.973 -23.8414C150.926 -24.3916 165.795 -27.5379 180.732 -26.6586C195.668 -25.778 211.485 -19.8746 219.062 -6.9579C226.234 5.26686 224.449 20.4938 223.569 34.6443C222.691 48.7948 223.747 64.8566 234.412 74.1813C249.519 87.384 274.131 79.2257 291.939 88.4568C308.827 97.2133 315.685 119.55 333.088 127.232C347.633 133.653 364.377 127.686 379.088 121.657C394.424 115.37 409.729 109.007 425 102.566" stroke="white" stroke-width="2.3"/>
<path d="M132.372 -203C116.006 -176.123 105.294 -145.809 101.131 -114.604C98.5576 -95.2979 99.4607 -73.1578 113.646 -59.8387C124.28 -49.8563 139.951 -47.3727 154.513 -47.909C169.077 -48.4453 183.556 -51.512 198.104 -50.6542C212.65 -49.7963 228.055 -44.0444 235.434 -31.4572C242.419 -19.5455 240.679 -4.70624 239.824 9.08197C238.969 22.8702 239.995 38.5217 250.384 47.6079C265.096 60.4734 289.066 52.5235 306.409 61.5197C322.857 70.0515 329.536 91.816 346.486 99.3029C360.651 105.56 376.957 99.7456 391.285 93.8701C406.221 87.7439 421.125 81.5433 436 75.2671" stroke="white" stroke-width="2.3"/>
<path d="M151.601 -223C135.625 -196.828 125.167 -167.31 121.104 -136.923C118.592 -118.123 119.473 -96.5638 133.323 -83.5932C143.701 -73.8733 159 -71.4541 173.216 -71.9766C187.431 -72.5002 201.567 -75.4849 215.768 -74.6498C229.968 -73.8146 245.005 -68.213 252.21 -55.9565C259.028 -44.3566 257.33 -29.9086 256.495 -16.4815C255.659 -3.05438 256.662 12.1868 266.804 21.0344C281.165 33.5629 304.564 25.8213 321.494 34.5814C337.551 42.8897 344.071 64.0837 360.616 71.3736C374.445 77.4665 390.362 71.8049 404.349 66.0835C418.929 60.1188 433.479 54.0798 448 47.9689" stroke="white" stroke-width="2.3"/>
<path d="M169.83 -243C154.244 -217.445 144.041 -188.622 140.078 -158.951C137.626 -140.595 138.487 -119.543 151.997 -106.88C162.123 -97.3883 177.048 -95.0253 190.917 -95.5368C204.786 -96.0459 218.576 -98.9623 232.432 -98.1459C246.286 -97.3306 260.956 -91.8616 267.985 -79.8934C274.637 -68.5675 272.98 -54.4597 272.165 -41.3484C271.351 -28.2384 272.33 -13.3562 282.223 -4.71739C296.235 7.51618 319.063 -0.0432014 335.579 8.51033C351.245 16.622 357.606 37.3179 373.747 44.4354C387.239 50.3847 402.769 44.8568 416.415 39.2701C430.64 33.4457 444.834 27.5493 459 21.582" stroke="white" stroke-width="2.3"/>
<path d="M188.963 -263C173.814 -238.15 163.899 -210.122 160.048 -181.27C157.664 -163.421 158.501 -142.949 171.632 -130.634C181.473 -121.404 195.978 -119.108 209.457 -119.604C222.937 -120.101 236.339 -122.935 249.803 -122.143C263.269 -121.349 277.526 -116.031 284.357 -104.393C290.823 -93.3798 289.213 -79.6597 288.421 -66.9119C287.629 -54.1629 288.58 -39.691 298.196 -31.2908C311.812 -19.3943 333.999 -26.7454 350.051 -18.4279C365.275 -10.5385 371.458 9.58431 387.145 16.5061C400.257 22.2913 415.35 16.9162 428.613 11.4823C442.436 5.81945 456.233 0.0858364 470 -5.71613" stroke="white" stroke-width="2.3"/>
</g>
</svg>
