<svg width="353" height="557" viewBox="0 0 353 557" fill="none" xmlns="http://www.w3.org/2000/svg">
<path opacity="0.03" fill-rule="evenodd" clip-rule="evenodd" d="M395.814 81.7184C332.252 99.9502 334.127 137.066 276.256 217.22C298.912 114.938 322.343 95.959 291.786 37.3669C264.888 -14.2112 189.469 -11.2119 174.666 48.195C122.782 15.2384 66.0044 64.6556 82.2097 120.473C100.554 183.611 135.859 181.421 216.494 238.927C113.583 216.42 96.5498 193.471 37.5857 223.853C-14.2975 250.575 -11.2917 325.534 48.4803 340.247C15.3093 391.813 65.0421 448.232 121.19 432.138C181.283 414.898 189.457 366.083 239.107 293.061C224.101 322.274 199.734 370.723 171.992 423.057C142.623 478.461 139.784 511.524 138.857 540.714C138.524 551.058 141.59 556.454 147.423 555.97H161.585C167.418 555.474 170.21 550.904 170.733 543.642C172.777 515.468 170.923 489.714 192.404 430.485C210.153 381.516 226.394 325.498 239.107 293.061C217.116 382.284 196.431 421.321 225.206 476.501C252.104 528.067 327.535 525.068 342.327 465.661C394.21 498.63 450.988 449.212 434.783 393.395C416.439 330.233 372.432 331.894 291.786 274.388C394.697 296.895 420.454 320.385 479.419 290.015C531.302 263.269 528.284 188.323 468.524 173.61C501.683 122.043 451.95 65.612 395.814 81.7184Z" fill="#00A134" stroke="white" stroke-width="0.6"/>
</svg>
