<svg width="25" height="24" viewBox="0 0 25 24" fill="none" xmlns="http://www.w3.org/2000/svg">
<path fill-rule="evenodd" clip-rule="evenodd" d="M18.6872 11.3311C18.6872 8.05236 15.8506 5.37695 12.3744 5.37695C8.89814 5.37695 6.06152 8.05236 6.06152 11.3311C6.06152 11.8032 6.11714 12.2753 6.25619 12.7474C6.42021 13.4952 6.71859 13.9641 7.1249 14.6026L7.14611 14.636C7.19813 14.7341 7.26096 14.8322 7.32785 14.9367L7.32789 14.9367C7.36828 14.9998 7.41015 15.0652 7.45202 15.1343C7.50599 15.2158 7.55577 15.2972 7.60461 15.3771L7.60462 15.3771C7.68161 15.5031 7.75628 15.6253 7.84136 15.7376L7.87424 15.7888C8.41069 16.6232 8.73128 17.1219 8.73128 18.1245V20.5901C8.73128 21.2196 9.20405 21.7179 9.84368 21.8229C10.1218 23.1606 10.9561 23.9999 12.3744 23.9999C13.7927 23.9999 14.6548 23.1606 14.9051 21.8229C15.5447 21.7179 16.0175 21.1933 16.0175 20.5901V18.1245C16.0175 17.1015 16.3512 16.577 16.9074 15.7376C17.0186 15.554 17.1577 15.3442 17.2967 15.1344L17.2967 15.1343C17.3386 15.0652 17.3805 14.9998 17.4209 14.9368L17.4209 14.9367C17.4878 14.8322 17.5506 14.7341 17.6027 14.636L17.6239 14.6026C18.0302 13.9641 18.3286 13.4951 18.4926 12.7474C18.6316 12.2753 18.6872 11.8032 18.6872 11.3311ZM14.9051 18.754H9.87147V18.1507C9.87147 18.0195 9.87147 17.9146 9.84367 17.8097H14.9329C14.9329 17.8592 14.9267 17.9088 14.9201 17.9611C14.9128 18.0195 14.9051 18.0815 14.9051 18.1507V18.754ZM10.0661 20.8261H14.6826C14.8216 20.8261 14.9329 20.7212 14.9051 20.6163V19.8032H9.84367V20.6163C9.84367 20.7212 9.92709 20.8261 10.0661 20.8261ZM12.3744 22.9769C12.0685 22.9769 11.2899 22.9769 10.984 21.8753H13.7928C13.4868 22.9769 12.6804 22.9769 12.3744 22.9769ZM16.6569 14.1113C17.0463 13.5081 17.2688 13.1146 17.4078 12.5376C17.5191 12.1179 17.5747 11.7245 17.6303 11.331L17.6303 11.331C17.6303 8.62936 15.2943 6.42608 12.4298 6.42608C9.5654 6.42608 7.22936 8.62936 7.22936 11.331C7.22936 11.7244 7.28498 12.1179 7.39622 12.5113C7.53527 13.1146 7.75775 13.4818 8.14709 14.1113C8.23052 14.2425 8.34176 14.4261 8.453 14.6097C8.52188 14.7396 8.60142 14.8595 8.67841 14.9755C8.72577 15.0469 8.77217 15.1168 8.81453 15.1867C9.17606 15.7113 9.45416 16.1835 9.64883 16.7343H15.1552C15.3434 16.2019 15.6354 15.743 15.9561 15.2392C15.9672 15.2218 15.9783 15.2043 15.9895 15.1867C16.0486 15.1032 16.1077 15.0048 16.1709 14.8994C16.2268 14.8065 16.2858 14.7081 16.351 14.6097C16.3855 14.5528 16.4172 14.4985 16.448 14.4459C16.5166 14.3286 16.5801 14.22 16.6569 14.1113Z" fill="#00A134"/>
<path d="M23.8322 10.8066H21.524C21.2181 10.8066 20.9678 11.0427 20.9678 11.3312C20.9678 11.6198 21.2181 11.8558 21.524 11.8558H23.8322C24.1381 11.8558 24.3884 11.6198 24.3884 11.3312C24.3884 11.0427 24.1381 10.8066 23.8322 10.8066Z" fill="#00A134"/>
<path d="M18.8267 5.77055C18.9658 5.77055 19.1048 5.71809 19.216 5.61317L20.8568 4.06563C21.0793 3.8558 21.0793 3.54104 20.8568 3.33121C20.6344 3.12137 20.3006 3.12137 20.0782 3.33121L18.4374 4.87875C18.2149 5.08858 18.2149 5.40334 18.4374 5.61317C18.5486 5.71809 18.6877 5.77055 18.8267 5.77055Z" fill="#00A134"/>
<path d="M12.3748 3.22623C12.6807 3.22623 12.931 2.99016 12.931 2.70164V0.52459C12.931 0.236066 12.6807 0 12.3748 0C12.0689 0 11.8186 0.236066 11.8186 0.52459V2.70164C11.8186 2.99016 12.0689 3.22623 12.3748 3.22623Z" fill="#00A134"/>
<path d="M5.53372 5.61317C5.64496 5.71809 5.78401 5.77055 5.92306 5.77055C6.06211 5.77055 6.20116 5.71809 6.3124 5.61317C6.53488 5.40334 6.53488 5.08858 6.3124 4.87875L4.67161 3.33121C4.44913 3.12137 4.11541 3.12137 3.89293 3.33121C3.67045 3.54104 3.67045 3.8558 3.89293 4.06563L5.53372 5.61317Z" fill="#00A134"/>
<path d="M3.2531 10.8066H0.944871C0.638962 10.8066 0.388672 11.0427 0.388672 11.3312C0.388672 11.6198 0.638962 11.8558 0.944871 11.8558H3.2531C3.55901 11.8558 3.8093 11.6198 3.8093 11.3312C3.8093 11.0427 3.55901 10.8066 3.2531 10.8066Z" fill="#00A134"/>
<path d="M5.53372 17.0492L3.89293 18.5968C3.67045 18.8066 3.67045 19.1214 3.89293 19.3312C4.00417 19.4361 4.14322 19.4886 4.28227 19.4886C4.42132 19.4886 4.56037 19.4361 4.67161 19.3312L6.3124 17.7836C6.53488 17.5738 6.53488 17.2591 6.3124 17.0492C6.08992 16.8394 5.72839 16.8394 5.53372 17.0492Z" fill="#00A134"/>
<path d="M19.216 17.0492C18.9936 16.8394 18.6598 16.8394 18.4374 17.0492C18.2149 17.2591 18.2149 17.5738 18.4374 17.7836L20.0782 19.3312C20.1894 19.4361 20.3284 19.4886 20.4675 19.4886C20.6065 19.4886 20.7456 19.4361 20.8568 19.3312C21.0793 19.1214 21.0793 18.8066 20.8568 18.5968L19.216 17.0492Z" fill="#00A134"/>
</svg>
