<svg width="111" height="38" viewBox="0 0 111 38" fill="none" xmlns="http://www.w3.org/2000/svg">
<path fill-rule="evenodd" clip-rule="evenodd" d="M22.5358 34.9604C32.2391 34.9604 40.1053 27.1343 40.1053 17.4802C40.1053 7.82616 32.2391 0 22.5358 0C12.8324 0 4.96631 7.82616 4.96631 17.4802C4.96631 27.1343 12.8324 34.9604 22.5358 34.9604ZM22.5361 30.4974C29.762 30.4974 35.6197 24.6694 35.6197 17.4802C35.6197 10.291 29.762 4.46301 22.5361 4.46301C15.3102 4.46301 9.45242 10.291 9.45242 17.4802C9.45242 24.6694 15.3102 30.4974 22.5361 30.4974Z" fill="url(#paint0_linear)"/>
<path fill-rule="evenodd" clip-rule="evenodd" d="M18.1704 16.3524C15.4061 17.1462 15.4876 18.762 12.9708 22.2515C13.9562 17.7986 14.9752 16.9724 13.6462 14.4216C12.4764 12.1762 9.19649 12.3067 8.55269 14.893C6.2963 13.4582 3.82703 15.6096 4.5318 18.0396C5.32957 20.7883 6.86501 20.693 10.3718 23.1965C5.89621 22.2167 5.15544 21.2176 2.5911 22.5402C0.334713 23.7036 0.465436 26.9669 3.06491 27.6074C1.62231 29.8523 3.78518 32.3085 6.22706 31.6079C8.84049 30.8573 9.19597 28.7322 11.3552 25.5532C10.7026 26.825 9.64291 28.9342 8.43643 31.2125C7.15917 33.6245 7.03568 35.0639 6.99538 36.3347C6.98092 36.785 7.11422 37.0199 7.36792 36.9989H7.98381C8.23751 36.9773 8.35893 36.7783 8.38167 36.4622C8.47054 35.2356 8.38993 34.1144 9.32411 31.5359C10.096 29.4041 10.8024 26.9653 11.3552 25.5532C10.3988 29.4375 9.49927 31.137 10.7507 33.5392C11.9205 35.7841 15.201 35.6536 15.8442 33.0673C18.1006 34.5026 20.5699 32.3512 19.8651 29.9212C19.0674 27.1715 17.1535 27.2438 13.6462 24.7403C18.1218 25.7201 19.242 26.7427 21.8063 25.4206C24.0627 24.2562 23.9315 20.9934 21.3325 20.3529C22.7746 18.108 20.6118 15.6512 18.1704 16.3524Z" fill="#00A134" stroke="white" stroke-width="0.6"/>
<path d="M63.1521 19.4098C63.33 19.4098 63.4837 19.4745 63.6131 19.6039C63.7425 19.7333 63.8072 19.887 63.8072 20.0649V21.7875C63.8072 21.9654 63.7425 22.1191 63.6131 22.2485C63.4837 22.3779 63.33 22.4426 63.1521 22.4426H52.5252C52.3473 22.4426 52.1936 22.3779 52.0642 22.2485C51.9348 22.1191 51.8701 21.9654 51.8701 21.7875V6.11407C51.8701 5.93614 51.9348 5.78248 52.0642 5.65308C52.1936 5.52368 52.3473 5.45898 52.5252 5.45898H54.4904C54.6684 5.45898 54.822 5.52368 54.9514 5.65308C55.0808 5.78248 55.1455 5.93614 55.1455 6.11407V19.4098H63.1521Z" fill="#333333"/>
<path d="M77.4399 19.4098C77.6178 19.4098 77.7715 19.4745 77.9009 19.6039C78.0303 19.7333 78.095 19.887 78.095 20.0649V21.7875C78.095 21.9654 78.0303 22.1191 77.9009 22.2485C77.7715 22.3779 77.6178 22.4426 77.4399 22.4426H66.7888C66.6109 22.4426 66.4572 22.3779 66.3278 22.2485C66.1984 22.1191 66.1337 21.9654 66.1337 21.7875V6.11407C66.1337 5.93614 66.1984 5.78248 66.3278 5.65308C66.4572 5.52368 66.6109 5.45898 66.7888 5.45898H77.2458C77.4237 5.45898 77.5774 5.52368 77.7068 5.65308C77.8362 5.78248 77.9009 5.93614 77.9009 6.11407V7.83669C77.9009 8.01461 77.8362 8.16827 77.7068 8.29767C77.5774 8.42707 77.4237 8.49177 77.2458 8.49177H69.4091V12.3495H76.7121C76.89 12.3495 77.0436 12.4142 77.173 12.5436C77.3024 12.673 77.3671 12.8266 77.3671 13.0046V14.7272C77.3671 14.9051 77.3024 15.0588 77.173 15.1882C77.0436 15.3176 76.89 15.3823 76.7121 15.3823H69.4091V19.4098H77.4399Z" fill="#333333"/>
<path d="M94.0156 5.45898C94.1935 5.45898 94.3472 5.52368 94.4766 5.65308C94.606 5.78248 94.6707 5.93614 94.6707 6.11407C94.6707 6.19494 94.6545 6.26773 94.6222 6.33243L88.872 16.4498V21.7875C88.872 21.9654 88.8073 22.1191 88.6779 22.2485C88.5485 22.3779 88.3949 22.4426 88.2169 22.4426H86.2759C86.098 22.4426 85.9444 22.3779 85.815 22.2485C85.6856 22.1191 85.6209 21.9654 85.6209 21.7875V16.4498L79.8707 6.33243C79.8384 6.26773 79.8222 6.19494 79.8222 6.11407C79.8222 5.93614 79.8869 5.78248 80.0163 5.65308C80.1457 5.52368 80.2993 5.45898 80.4773 5.45898H82.2969C82.6204 5.45898 82.8631 5.53986 83.0248 5.70161C83.1865 5.86336 83.2836 5.98467 83.3159 6.06554L87.2464 12.9318L91.1769 6.06554C91.2093 5.98467 91.3063 5.86336 91.4681 5.70161C91.6298 5.53986 91.8724 5.45898 92.1959 5.45898H94.0156Z" fill="#333333"/>
<path d="M103.283 5.45898C103.542 5.45898 103.736 5.53177 103.865 5.67735C103.995 5.80674 104.108 6.00893 104.205 6.2839L110.149 21.6177C110.165 21.6662 110.173 21.7228 110.173 21.7875C110.173 21.9654 110.109 22.1191 109.979 22.2485C109.85 22.3779 109.696 22.4426 109.518 22.4426H107.771C107.448 22.4426 107.221 22.3779 107.092 22.2485C106.963 22.1029 106.874 21.9654 106.825 21.836L105.782 19.1429H98.115L97.0717 21.836C97.0232 21.9654 96.9342 22.1029 96.8048 22.2485C96.6754 22.3779 96.449 22.4426 96.1255 22.4426H94.3786C94.2007 22.4426 94.047 22.3779 93.9176 22.2485C93.7882 22.1191 93.7235 21.9654 93.7235 21.7875C93.7235 21.7228 93.7316 21.6662 93.7478 21.6177L99.692 6.2839C99.7891 6.00893 99.9023 5.80674 100.032 5.67735C100.161 5.53177 100.355 5.45898 100.614 5.45898H103.283ZM104.617 16.1101L101.948 9.19538L99.2796 16.1101H104.617Z" fill="#333333"/>
<path d="M51.4999 35.1803C51.4514 35.1803 51.4101 35.1633 51.3761 35.1294C51.3422 35.0954 51.3252 35.0542 51.3252 35.0056V30.2672C51.3252 30.2138 51.3398 30.1702 51.3689 30.1362C51.4028 30.1022 51.4465 30.0852 51.4999 30.0852H53.4506C54.0329 30.0852 54.4914 30.2235 54.8262 30.5001C55.1611 30.7719 55.3285 31.1722 55.3285 31.7011C55.3285 32.23 55.1611 32.6304 54.8262 32.9021C54.4963 33.169 54.0377 33.3024 53.4506 33.3024H52.366V35.0056C52.366 35.0542 52.3491 35.0954 52.3151 35.1294C52.286 35.1633 52.2447 35.1803 52.1914 35.1803H51.4999ZM53.4142 32.4945C53.6956 32.4945 53.9116 32.429 54.062 32.298C54.2124 32.1621 54.2876 31.9631 54.2876 31.7011C54.2876 31.4488 54.2148 31.2523 54.0693 31.1115C53.9237 30.966 53.7053 30.8932 53.4142 30.8932H52.3515V32.4945H53.4142Z" fill="#333333"/>
<path d="M57.6602 35.2531C57.0924 35.2531 56.6533 35.1075 56.3427 34.8164C56.0322 34.5204 55.8647 34.1176 55.8405 33.6081L55.8332 33.2879L55.8405 32.9676C55.8647 32.4629 56.0346 32.0626 56.35 31.7666C56.6654 31.4706 57.1021 31.3226 57.6602 31.3226C58.2182 31.3226 58.6549 31.4706 58.9703 31.7666C59.2857 32.0626 59.4556 32.4629 59.4798 32.9676C59.4847 33.0258 59.4871 33.1326 59.4871 33.2879C59.4871 33.4431 59.4847 33.5499 59.4798 33.6081C59.4556 34.1176 59.2882 34.5204 58.9776 34.8164C58.667 35.1075 58.2279 35.2531 57.6602 35.2531ZM57.6602 34.5325C57.9173 34.5325 58.1163 34.4525 58.257 34.2923C58.3977 34.1273 58.4754 33.8871 58.4899 33.5717C58.4948 33.5232 58.4972 33.4286 58.4972 33.2879C58.4972 33.1471 58.4948 33.0525 58.4899 33.004C58.4754 32.6886 58.3977 32.4508 58.257 32.2907C58.1163 32.1257 57.9173 32.0432 57.6602 32.0432C57.403 32.0432 57.204 32.1257 57.0633 32.2907C56.9226 32.4508 56.8449 32.6886 56.8304 33.004L56.8231 33.2879L56.8304 33.5717C56.8449 33.8871 56.9226 34.1273 57.0633 34.2923C57.204 34.4525 57.403 34.5325 57.6602 34.5325Z" fill="#333333"/>
<path d="M61.2205 35.1803C61.1574 35.1803 61.1065 35.1658 61.0677 35.1366C61.0337 35.1027 61.0046 35.0566 60.9803 34.9984L59.9395 31.621C59.9346 31.6065 59.9322 31.5846 59.9322 31.5555C59.9322 31.5119 59.9467 31.4755 59.9759 31.4464C60.0098 31.4124 60.0462 31.3954 60.085 31.3954H60.6237C60.677 31.3954 60.7207 31.41 60.7547 31.4391C60.7886 31.4682 60.8105 31.4997 60.8202 31.5337L61.5335 33.9429L62.2905 31.5555C62.305 31.5119 62.3293 31.4755 62.3633 31.4464C62.4021 31.4124 62.4506 31.3954 62.5088 31.3954H62.8728C62.931 31.3954 62.9771 31.4124 63.0111 31.4464C63.0499 31.4755 63.0766 31.5119 63.0911 31.5555L63.8481 33.9429L64.5614 31.5337C64.5663 31.4997 64.5857 31.4682 64.6197 31.4391C64.6585 31.41 64.7022 31.3954 64.7507 31.3954H65.2893C65.333 31.3954 65.3694 31.4124 65.3985 31.4464C65.4325 31.4755 65.4494 31.5119 65.4494 31.5555L65.4349 31.621L64.394 34.9984C64.3746 35.0566 64.3455 35.1027 64.3067 35.1366C64.2727 35.1658 64.2242 35.1803 64.1611 35.1803H63.688C63.5618 35.1803 63.4818 35.1197 63.4478 34.9984L62.6908 32.6983L61.9338 34.9984C61.895 35.1197 61.8125 35.1803 61.6864 35.1803H61.2205Z" fill="#333333"/>
<path d="M67.6815 35.2531C67.1429 35.2531 66.7135 35.0978 66.3932 34.7873C66.0778 34.4719 65.9104 34.0303 65.891 33.4625L65.8837 33.2806L65.891 33.0986C65.9152 32.5454 66.0851 32.1111 66.4005 31.7957C66.7208 31.4803 67.1478 31.3226 67.6815 31.3226C68.2541 31.3226 68.6957 31.4973 69.0063 31.8467C69.3217 32.1961 69.4794 32.6619 69.4794 33.2442V33.397C69.4794 33.4456 69.4624 33.4868 69.4284 33.5208C69.3945 33.5547 69.3508 33.5717 69.2974 33.5717H66.8809V33.63C66.8906 33.8968 66.9634 34.1225 67.0992 34.3069C67.24 34.4864 67.4316 34.5762 67.6743 34.5762C67.9606 34.5762 68.1911 34.4646 68.3657 34.2414C68.4094 34.188 68.4434 34.154 68.4676 34.1395C68.4968 34.1249 68.538 34.1176 68.5914 34.1176H69.2173C69.261 34.1176 69.2974 34.1322 69.3265 34.1613C69.3605 34.1856 69.3775 34.2171 69.3775 34.2559C69.3775 34.3724 69.3071 34.5107 69.1664 34.6708C69.0305 34.8261 68.834 34.962 68.5768 35.0784C68.3196 35.1949 68.0212 35.2531 67.6815 35.2531ZM68.4895 32.9603V32.9385C68.4895 32.6522 68.4167 32.4217 68.2711 32.247C68.1304 32.0723 67.9339 31.985 67.6815 31.985C67.4292 31.985 67.2327 32.0723 67.092 32.247C66.9512 32.4217 66.8809 32.6522 66.8809 32.9385V32.9603H68.4895Z" fill="#333333"/>
<path d="M70.4267 35.1803C70.3782 35.1803 70.3369 35.1633 70.303 35.1294C70.269 35.0954 70.252 35.0542 70.252 35.0056V31.5774C70.252 31.5288 70.269 31.4876 70.303 31.4536C70.3369 31.4148 70.3782 31.3954 70.4267 31.3954H71.0163C71.0696 31.3954 71.1133 31.4124 71.1473 31.4464C71.1812 31.4803 71.1982 31.524 71.1982 31.5774V31.8758C71.3147 31.7205 71.4603 31.6016 71.635 31.5191C71.8145 31.4366 72.0183 31.3954 72.2464 31.3954H72.5448C72.5982 31.3954 72.6394 31.4124 72.6685 31.4464C72.7025 31.4755 72.7195 31.5167 72.7195 31.5701V32.0942C72.7195 32.1427 72.7025 32.1839 72.6685 32.2179C72.6394 32.2519 72.5982 32.2688 72.5448 32.2688H71.9771C71.749 32.2688 71.5694 32.3344 71.4384 32.4654C71.3074 32.5964 71.2419 32.7759 71.2419 33.004V35.0056C71.2419 35.0542 71.2249 35.0954 71.191 35.1294C71.157 35.1633 71.1133 35.1803 71.0599 35.1803H70.4267Z" fill="#333333"/>
<path d="M74.8678 35.2531C74.3292 35.2531 73.8998 35.0978 73.5795 34.7873C73.2641 34.4719 73.0967 34.0303 73.0773 33.4625L73.07 33.2806L73.0773 33.0986C73.1015 32.5454 73.2714 32.1111 73.5868 31.7957C73.907 31.4803 74.3341 31.3226 74.8678 31.3226C75.4404 31.3226 75.882 31.4973 76.1926 31.8467C76.508 32.1961 76.6657 32.6619 76.6657 33.2442V33.397C76.6657 33.4456 76.6487 33.4868 76.6147 33.5208C76.5807 33.5547 76.5371 33.5717 76.4837 33.5717H74.0672V33.63C74.0769 33.8968 74.1497 34.1225 74.2855 34.3069C74.4263 34.4864 74.6179 34.5762 74.8605 34.5762C75.1468 34.5762 75.3773 34.4646 75.552 34.2414C75.5957 34.188 75.6297 34.154 75.6539 34.1395C75.683 34.1249 75.7243 34.1176 75.7777 34.1176H76.4036C76.4473 34.1176 76.4837 34.1322 76.5128 34.1613C76.5468 34.1856 76.5638 34.2171 76.5638 34.2559C76.5638 34.3724 76.4934 34.5107 76.3527 34.6708C76.2168 34.8261 76.0203 34.962 75.7631 35.0784C75.5059 35.1949 75.2075 35.2531 74.8678 35.2531ZM75.6758 32.9603V32.9385C75.6758 32.6522 75.603 32.4217 75.4574 32.247C75.3167 32.0723 75.1202 31.985 74.8678 31.985C74.6155 31.985 74.419 32.0723 74.2783 32.247C74.1375 32.4217 74.0672 32.6522 74.0672 32.9385V32.9603H75.6758Z" fill="#333333"/>
<path d="M78.8431 35.2531C78.353 35.2531 77.9769 35.0954 77.7149 34.78C77.4528 34.4646 77.3121 34.0448 77.2927 33.5208L77.2854 33.2806L77.2927 33.0477C77.3073 32.5382 77.4456 32.1233 77.7076 31.803C77.9745 31.4827 78.353 31.3226 78.8431 31.3226C79.3138 31.3226 79.6874 31.4827 79.964 31.803V30.1871C79.964 30.1338 79.981 30.0925 80.0149 30.0634C80.0489 30.0294 80.0902 30.0125 80.1387 30.0125H80.7574C80.8107 30.0125 80.852 30.0294 80.8811 30.0634C80.9151 30.0925 80.9321 30.1338 80.9321 30.1871V35.0056C80.9321 35.0542 80.9151 35.0954 80.8811 35.1294C80.852 35.1633 80.8107 35.1803 80.7574 35.1803H80.1824C80.1338 35.1803 80.0926 35.1633 80.0586 35.1294C80.0246 35.0954 80.0077 35.0542 80.0077 35.0056V34.7363C79.7311 35.0808 79.3429 35.2531 78.8431 35.2531ZM79.1124 34.4743C79.3938 34.4743 79.6025 34.3845 79.7384 34.205C79.8742 34.0254 79.9494 33.8046 79.964 33.5426C79.9688 33.4844 79.9713 33.3898 79.9713 33.2587C79.9713 33.1326 79.9688 33.0404 79.964 32.9822C79.9543 32.7395 79.8766 32.5333 79.7311 32.3635C79.5904 32.1888 79.3841 32.1014 79.1124 32.1014C78.5883 32.1014 78.3093 32.4241 78.2753 33.0695L78.2681 33.2879L78.2753 33.5062C78.3093 34.1516 78.5883 34.4743 79.1124 34.4743Z" fill="#333333"/>
<path d="M85.6617 35.2531C85.1619 35.2531 84.7737 35.0808 84.4971 34.7363V35.0056C84.4971 35.0542 84.4802 35.0954 84.4462 35.1294C84.4171 35.1633 84.3758 35.1803 84.3224 35.1803H83.7474C83.6989 35.1803 83.6577 35.1633 83.6237 35.1294C83.5897 35.0954 83.5727 35.0542 83.5727 35.0056V30.1871C83.5727 30.1338 83.5897 30.0925 83.6237 30.0634C83.6577 30.0294 83.6989 30.0125 83.7474 30.0125H84.3661C84.4195 30.0125 84.4607 30.0294 84.4899 30.0634C84.5238 30.0925 84.5408 30.1338 84.5408 30.1871V31.803C84.8174 31.4827 85.191 31.3226 85.6617 31.3226C86.1518 31.3226 86.5279 31.4827 86.7899 31.803C87.052 32.1233 87.1927 32.5382 87.2121 33.0477C87.2169 33.1059 87.2194 33.1835 87.2194 33.2806C87.2194 33.3825 87.2169 33.4625 87.2121 33.5208C87.1927 34.0448 87.052 34.4646 86.7899 34.78C86.5279 35.0954 86.1518 35.2531 85.6617 35.2531ZM85.3924 34.4743C85.9165 34.4743 86.1955 34.1516 86.2295 33.5062C86.2343 33.4577 86.2367 33.3849 86.2367 33.2879C86.2367 33.1908 86.2343 33.118 86.2295 33.0695C86.1955 32.4241 85.9165 32.1014 85.3924 32.1014C85.1207 32.1014 84.912 32.1888 84.7664 32.3635C84.6257 32.5333 84.5505 32.7395 84.5408 32.9822L84.5335 33.2587L84.5408 33.5426C84.5554 33.8046 84.6306 34.0254 84.7664 34.205C84.9023 34.3845 85.111 34.4743 85.3924 34.4743Z" fill="#333333"/>
<path d="M88.5572 36.5633C88.5183 36.5633 88.4844 36.5487 88.4553 36.5196C88.4261 36.4905 88.4116 36.4565 88.4116 36.4177C88.4116 36.374 88.4213 36.3352 88.4407 36.3012L89.0084 34.9547L87.6109 31.6574C87.5915 31.6138 87.5818 31.5798 87.5818 31.5555C87.5867 31.5119 87.6037 31.4755 87.6328 31.4464C87.6619 31.4124 87.6983 31.3954 87.742 31.3954H88.3315C88.4237 31.3954 88.4892 31.4415 88.528 31.5337L89.4961 33.9138L90.4933 31.5337C90.5321 31.4415 90.5976 31.3954 90.6898 31.3954H91.2721C91.3109 31.3954 91.3449 31.41 91.374 31.4391C91.408 31.4682 91.425 31.5022 91.425 31.541C91.425 31.5749 91.4153 31.6138 91.3959 31.6574L89.336 36.425C89.2923 36.5172 89.2244 36.5633 89.1322 36.5633H88.5572Z" fill="#333333"/>
<path d="M94.7292 35.1803C94.6806 35.1803 94.6394 35.1633 94.6054 35.1294C94.5714 35.0954 94.5545 35.0542 94.5545 35.0056V30.9805H93.2079C93.1594 30.9805 93.1181 30.9635 93.0842 30.9296C93.0502 30.8956 93.0332 30.8544 93.0332 30.8058V30.2672C93.0332 30.2138 93.0478 30.1702 93.0769 30.1362C93.1109 30.1022 93.1545 30.0852 93.2079 30.0852H96.92C96.9734 30.0852 97.0171 30.1022 97.0511 30.1362C97.085 30.1702 97.102 30.2138 97.102 30.2672V30.8058C97.102 30.8544 97.085 30.8956 97.0511 30.9296C97.0171 30.9635 96.9734 30.9805 96.92 30.9805H95.5808V35.0056C95.5808 35.0542 95.5638 35.0954 95.5298 35.1294C95.4958 35.1633 95.4522 35.1803 95.3988 35.1803H94.7292Z" fill="#333333"/>
<path d="M97.4222 35.1803C97.3737 35.1803 97.3324 35.1633 97.2985 35.1294C97.2645 35.0954 97.2475 35.0542 97.2475 35.0056V34.285C97.2475 34.2365 97.2645 34.1953 97.2985 34.1613C97.3324 34.1225 97.3737 34.1031 97.4222 34.1031H98.1501C98.1986 34.1031 98.2399 34.1225 98.2738 34.1613C98.3078 34.1953 98.3248 34.2365 98.3248 34.285V35.0056C98.3248 35.0542 98.3078 35.0954 98.2738 35.1294C98.2399 35.1633 98.1986 35.1803 98.1501 35.1803H97.4222Z" fill="#333333"/>
<path d="M101.206 35.2531C100.536 35.2531 100.017 35.0808 99.6485 34.7363C99.2845 34.3918 99.0904 33.9065 99.0662 33.2806C99.0613 33.1496 99.0589 32.9361 99.0589 32.6401C99.0589 32.3392 99.0613 32.1208 99.0662 31.985C99.0904 31.3639 99.287 30.881 99.6557 30.5365C100.029 30.1871 100.546 30.0125 101.206 30.0125C101.638 30.0125 102.014 30.0877 102.334 30.2381C102.655 30.3837 102.902 30.585 103.077 30.8422C103.251 31.0945 103.344 31.3808 103.353 31.7011V31.7157C103.353 31.7545 103.336 31.7885 103.302 31.8176C103.273 31.8418 103.239 31.854 103.2 31.854H102.509C102.451 31.854 102.407 31.8418 102.378 31.8176C102.349 31.7933 102.325 31.7472 102.305 31.6793C102.228 31.3736 102.099 31.1601 101.919 31.0387C101.74 30.9126 101.5 30.8495 101.199 30.8495C100.5 30.8495 100.136 31.2401 100.107 32.0214C100.102 32.1524 100.1 32.3538 100.1 32.6255C100.1 32.8972 100.102 33.1035 100.107 33.2442C100.136 34.0254 100.5 34.4161 101.199 34.4161C101.5 34.4161 101.74 34.353 101.919 34.2268C102.104 34.1006 102.232 33.8871 102.305 33.5863C102.32 33.5184 102.342 33.4723 102.371 33.448C102.405 33.4237 102.451 33.4116 102.509 33.4116H103.2C103.244 33.4116 103.281 33.4262 103.31 33.4553C103.344 33.4844 103.358 33.5208 103.353 33.5645C103.344 33.8847 103.251 34.1734 103.077 34.4306C102.902 34.6829 102.655 34.8843 102.334 35.0347C102.014 35.1803 101.638 35.2531 101.206 35.2531Z" fill="#333333"/>
<path d="M104.189 35.1803C104.141 35.1803 104.099 35.1633 104.065 35.1294C104.031 35.0954 104.014 35.0542 104.014 35.0056V34.285C104.014 34.2365 104.031 34.1953 104.065 34.1613C104.099 34.1225 104.141 34.1031 104.189 34.1031H104.917C104.966 34.1031 105.007 34.1225 105.041 34.1613C105.075 34.1953 105.092 34.2365 105.092 34.285V35.0056C105.092 35.0542 105.075 35.0954 105.041 35.1294C105.007 35.1633 104.966 35.1803 104.917 35.1803H104.189Z" fill="#333333"/>
<path d="M106.232 35.1803C106.184 35.1803 106.142 35.1633 106.108 35.1294C106.075 35.0954 106.058 35.0542 106.058 35.0056V30.2599C106.058 30.2065 106.075 30.1653 106.108 30.1362C106.142 30.1022 106.184 30.0852 106.232 30.0852H106.909C106.963 30.0852 107.004 30.1022 107.033 30.1362C107.067 30.1653 107.084 30.2065 107.084 30.2599V34.3142H109.391C109.445 34.3142 109.488 34.3311 109.522 34.3651C109.556 34.3991 109.573 34.4427 109.573 34.4961V35.0056C109.573 35.059 109.556 35.1027 109.522 35.1366C109.488 35.1658 109.445 35.1803 109.391 35.1803H106.232Z" fill="#333333"/>
<defs>
<linearGradient id="paint0_linear" x1="2.10584" y1="18.0556" x2="24.4791" y2="46.271" gradientUnits="userSpaceOnUse">
<stop stop-color="#FFCC37"/>
<stop offset="1" stop-color="#FEA70B"/>
</linearGradient>
</defs>
</svg>
