<svg width="414" height="896" viewBox="0 0 414 896" fill="none" xmlns="http://www.w3.org/2000/svg">
<g opacity="0.05">
<path d="M-319.58 387.327C-354.171 432.151 -376.814 482.709 -385.608 534.752C-391.049 566.949 -389.14 603.876 -359.155 626.088C-336.683 642.738 -303.558 646.88 -272.778 645.986C-241.998 645.091 -211.391 639.977 -180.645 641.406C-149.899 642.836 -117.341 652.43 -101.742 673.423C-86.9797 693.289 -90.6555 718.036 -92.4653 741.031C-94.2706 764.028 -92.0984 790.133 -70.1424 805.286C-39.0473 826.743 11.6178 813.484 48.2728 828.487C83.0392 842.716 97.1573 879.018 132.979 891.501C162.922 901.938 197.387 892.239 227.669 882.441C259.239 872.225 290.744 861.884 322.181 851.416" stroke="white" stroke-width="2.3"/>
<path d="M-283.453 357.667C-317.308 401.447 -339.474 450.823 -348.084 501.653C-353.408 533.099 -351.54 569.165 -322.189 590.86C-300.195 607.121 -267.77 611.168 -237.641 610.291C-207.515 609.419 -177.555 604.423 -147.458 605.82C-117.36 607.217 -85.4922 616.588 -70.2239 637.089C-55.7735 656.494 -59.372 680.663 -61.1431 703.122C-62.9119 725.582 -60.7871 751.077 -39.293 765.877C-8.85551 786.835 40.7372 773.885 76.6163 788.537C110.646 802.435 124.465 837.889 159.531 850.084C188.837 860.274 222.573 850.803 252.218 841.233C283.117 831.255 313.955 821.155 344.726 810.933" stroke="white" stroke-width="2.3"/>
<path d="M-249.204 328.006C-282.331 370.872 -304.015 419.216 -312.436 468.984C-317.649 499.774 -315.819 535.086 -287.104 556.327C-265.583 572.248 -233.858 576.209 -204.383 575.352C-174.906 574.496 -145.595 569.607 -116.149 570.975C-86.7033 572.342 -55.5251 581.516 -40.5856 601.59C-26.4468 620.588 -29.9702 644.253 -31.7004 666.244C-33.4327 688.233 -31.353 713.196 -10.3231 727.686C19.4567 748.207 67.9745 735.527 103.08 749.875C136.374 763.482 149.895 798.194 184.199 810.133C212.874 820.112 245.879 810.838 274.883 801.468C305.114 791.697 335.286 781.809 365.393 771.8" stroke="white" stroke-width="2.3"/>
<path d="M-213.255 298.346C-245.56 340.165 -266.702 387.332 -274.917 435.885C-279.999 465.924 -278.216 500.375 -250.214 521.098C-229.227 536.63 -198.294 540.496 -169.551 539.66C-140.806 538.824 -112.224 534.053 -83.5103 535.389C-54.797 536.722 -24.3926 545.672 -9.82544 565.257C3.9626 583.793 0.528548 606.879 -1.16034 628.333C-2.84922 649.788 -0.820309 674.141 19.6827 688.277C48.7225 708.296 96.0383 695.927 130.269 709.923C162.736 723.199 175.916 757.065 209.371 768.714C237.332 778.449 269.52 769.402 297.799 760.26C327.28 750.729 356.7 741.081 386.06 731.315" stroke="white" stroke-width="2.3"/>
<path d="M-179.006 267.203C-210.578 308.108 -231.244 354.241 -239.271 401.734C-244.238 431.114 -242.495 464.811 -215.127 485.082C-194.617 500.274 -164.384 504.055 -136.293 503.237C-108.199 502.421 -80.2634 497.755 -52.2013 499.059C-24.1392 500.365 5.57754 509.12 19.8137 528.275C33.2879 546.405 29.9334 568.987 28.281 589.972C26.6308 610.957 28.6147 634.777 48.6535 648.606C77.0357 668.186 123.277 656.087 156.734 669.777C188.463 682.763 201.347 715.888 234.044 727.281C261.371 736.804 292.828 727.954 320.469 719.013C349.282 709.69 378.036 700.252 406.727 690.701" stroke="white" stroke-width="2.3"/>
<path d="M-143.06 237.542C-173.808 277.401 -193.934 322.358 -201.754 368.635C-206.589 397.266 -204.893 430.1 -178.241 449.852C-158.263 464.657 -128.82 468.34 -101.462 467.544C-74.0985 466.749 -46.8951 462.201 -19.5634 463.473C7.76605 464.745 36.7089 473.276 50.5728 491.943C63.6963 509.608 60.4267 531.615 58.82 552.063C57.2133 572.511 59.1418 595.722 78.6605 609.197C106.301 628.277 151.335 616.487 183.919 629.828C214.822 642.481 227.369 674.758 259.215 685.861C285.829 695.141 316.464 686.518 343.384 677.805C371.444 668.719 399.447 659.524 427.393 650.216" stroke="white" stroke-width="2.3"/>
<path d="M-106.932 207.882C-136.947 246.696 -156.596 290.472 -164.229 335.535C-168.948 363.416 -167.292 395.389 -141.272 414.624C-121.774 429.039 -93.0298 432.627 -66.3224 431.852C-39.615 431.075 -13.0562 426.649 13.6242 427.887C40.3023 429.126 68.5552 437.433 82.0903 455.61C94.8999 472.813 91.7099 494.239 90.1419 514.152C88.5717 534.064 90.455 556.667 109.51 569.788C136.492 588.368 180.454 576.887 212.262 589.879C242.429 602.2 254.678 633.631 285.763 644.442C311.745 653.478 341.649 645.082 367.928 636.597C395.321 627.751 422.657 618.795 449.939 609.733" stroke="white" stroke-width="2.3"/>
<path d="M-72.6843 178.222C-101.966 216.12 -121.136 258.865 -128.582 302.867C-133.188 330.089 -131.57 361.31 -106.188 380.09C-87.1628 394.166 -59.1215 397.67 -33.0652 396.912C-7.00891 396.157 18.9008 391.832 44.9323 393.042C70.9615 394.251 98.5223 402.362 111.729 420.111C124.227 436.908 121.114 457.83 119.583 477.274C118.053 496.716 119.892 518.787 138.48 531.598C164.804 549.741 207.694 538.53 238.724 551.215C268.157 563.245 280.107 593.937 310.433 604.492C335.781 613.315 364.959 605.117 390.598 596.832C417.322 588.194 443.99 579.45 470.605 570.6" stroke="white" stroke-width="2.3"/>
<path d="M-36.7368 148.562C-65.1985 185.415 -83.827 226.981 -91.0623 269.768C-95.5399 296.239 -93.9686 326.599 -69.2979 344.862C-50.8089 358.55 -23.5561 361.955 1.76747 361.219C27.0933 360.483 52.2728 356.279 77.5693 357.455C102.868 358.632 129.655 366.518 142.489 383.778C154.636 400.11 151.611 420.458 150.123 439.363C148.635 458.27 150.422 479.732 168.488 492.189C194.07 509.832 235.755 498.93 265.912 511.265C294.516 522.965 306.132 552.808 335.604 563.073C360.239 571.652 388.595 563.681 413.513 555.622C439.485 547.224 465.405 538.721 491.272 530.117" stroke="white" stroke-width="2.3"/>
<path d="M-2.48921 117.418C-30.218 153.358 -48.3673 193.891 -55.4156 235.617C-59.7793 261.431 -58.2466 291.037 -34.2121 308.846C-16.1981 322.194 10.3519 325.515 35.0265 324.799C59.6988 324.081 84.2337 319.98 108.877 321.126C133.524 322.274 159.623 329.965 172.126 346.796C183.96 362.723 181.012 382.564 179.565 401.001C178.113 419.439 179.853 440.367 197.457 452.515C222.382 469.72 262.992 459.089 292.375 471.117C320.244 482.527 331.559 511.629 360.275 521.641C384.276 530.007 411.903 522.232 436.177 514.375C461.485 506.185 486.736 497.894 511.938 489.502" stroke="white" stroke-width="2.3"/>
<path d="M33.4583 87.7581C6.55391 122.651 -11.0562 162.007 -17.8964 202.517C-22.1297 227.581 -20.6451 256.326 2.67604 273.616C20.1557 286.576 45.9196 289.8 69.8594 289.104C93.7969 288.407 117.604 284.426 141.519 285.54C165.432 286.654 190.757 294.122 202.888 310.463C214.371 325.928 211.509 345.19 210.104 363.092C208.698 380.993 210.387 401.312 227.466 413.108C251.651 429.811 291.055 419.491 319.566 431.169C346.607 442.244 357.586 470.502 385.446 480.221C408.736 488.344 435.544 480.796 459.097 473.167C483.651 465.215 508.153 457.165 532.605 449.017" stroke="white" stroke-width="2.3"/>
<path d="M69.5861 58.0979C43.4147 91.9461 26.2817 130.121 19.6263 169.42C15.5114 193.73 16.9573 221.614 39.6422 238.388C56.6468 250.958 81.7078 254.087 104.996 253.412C128.285 252.735 151.443 248.874 174.706 249.955C197.968 251.035 222.601 258.278 234.405 274.13C245.576 289.131 242.792 307.817 241.425 325.182C240.056 342.546 241.7 362.257 258.315 373.699C281.84 389.901 320.174 379.891 347.908 391.219C374.212 401.965 384.893 429.374 411.996 438.802C434.652 446.681 460.729 439.359 483.641 431.959C507.526 424.245 531.362 416.436 555.151 408.533" stroke="white" stroke-width="2.3"/>
<path d="M103.835 28.4376C78.3969 61.3718 61.7432 98.5142 55.2747 136.75C51.2714 160.406 52.6765 187.534 74.7297 203.856C91.2571 216.087 115.62 219.131 138.255 218.474C160.892 217.815 183.401 214.059 206.016 215.108C228.628 216.16 252.571 223.207 264.044 238.63C274.902 253.226 272.198 271.408 270.869 288.303C269.538 305.198 271.135 324.377 287.284 335.509C310.156 351.274 347.415 341.534 374.371 352.556C399.94 363.01 410.324 389.679 436.669 398.852C458.691 406.519 484.037 399.394 506.309 392.195C529.528 384.691 552.697 377.091 575.817 369.402" stroke="white" stroke-width="2.3"/>
<path d="M139.782 -1.22266C115.168 30.665 99.051 66.6298 92.7929 103.651C88.9201 126.556 90.2793 152.825 111.617 168.626C127.612 180.47 151.182 183.416 173.089 182.78C194.991 182.143 216.772 178.505 238.654 179.522C260.534 180.541 283.703 187.363 294.804 202.297C305.311 216.431 302.693 234.036 301.406 250.394C300.119 266.752 301.665 285.322 317.291 296.1C339.421 311.365 375.473 301.934 401.559 312.606C426.301 322.729 436.347 348.551 461.84 357.433C483.146 364.856 507.675 357.957 529.226 350.987C551.691 343.72 574.111 336.363 596.484 328.916" stroke="white" stroke-width="2.3"/>
</g>
</svg>
