<svg width="51" height="94" viewBox="0 0 51 94" fill="none" xmlns="http://www.w3.org/2000/svg">
<g opacity="0.7">
<rect x="49.3187" y="21.2966" width="1.68132" height="11.7694" rx="0.268041" fill="#00A134"/>
<rect y="18.3076" width="1.30769" height="7.09903" rx="0.268041" fill="#00A134"/>
<rect y="9.52734" width="1.30769" height="7.09903" rx="0.268041" fill="#00A134"/>
<rect x="0.934082" width="49.3187" height="93.2214" rx="1.31849" fill="#00A134"/>
<rect x="2.61536" y="2.42871" width="45.9561" height="86.3092" rx="1.00826" fill="#FCF8F3"/>
<rect x="15.879" y="4.67041" width="3.92315" height="19.2418" rx="0.853139" transform="rotate(-90 15.879 4.67041)" fill="#00A134"/>
<path d="M6.52551 46.5244C6.52551 46.1707 6.81221 45.884 7.16587 45.884H12.8862C13.2399 45.884 13.5266 46.1707 13.5266 46.5244C13.5266 46.878 13.2399 47.1647 12.8862 47.1647H7.16587C6.81221 47.1647 6.52551 46.878 6.52551 46.5244Z" fill="#FFCA33"/>
<path d="M6.52551 29.834C6.52551 29.5039 6.7931 29.2363 7.12318 29.2363H12.9289C13.259 29.2363 13.5266 29.5039 13.5266 29.834C13.5266 30.1641 13.259 30.4317 12.9289 30.4317H7.12318C6.7931 30.4317 6.52551 30.1641 6.52551 29.834Z" fill="#FFCA33"/>
<path d="M6.52551 13.1416C6.52551 12.7879 6.81221 12.5012 7.16587 12.5012H12.8862C13.2399 12.5012 13.5266 12.7879 13.5266 13.1416C13.5266 13.4952 13.2399 13.7819 12.8862 13.7819H7.16587C6.81221 13.7819 6.52551 13.4952 6.52551 13.1416Z" fill="#FFCA33"/>
<path d="M6.35461 9.55491C6.35461 8.87117 6.90889 8.31689 7.59263 8.31689H36.963C37.6467 8.31689 38.201 8.87117 38.201 9.55491C38.201 10.2387 37.6467 10.7929 36.963 10.7929H7.59263C6.90889 10.7929 6.35461 10.2387 6.35461 9.55491Z" fill="white"/>
<path d="M6.53601 15.3644C6.53601 15.0217 6.8138 14.7439 7.15648 14.7439H18.0409C18.3836 14.7439 18.6614 15.0217 18.6614 15.3644V24.3089C18.6614 24.6516 18.3836 24.9294 18.0409 24.9294H7.15648C6.8138 24.9294 6.53601 24.6516 6.53601 24.3089V15.3644Z" fill="#00A134"/>
<path d="M20.2134 15.3259H34.6668" stroke="#101010" stroke-width="0.155116" stroke-linecap="round" stroke-linejoin="round"/>
<path d="M20.2134 17.1685H34.6668" stroke="#101010" stroke-width="0.155116" stroke-linecap="round" stroke-linejoin="round"/>
<path d="M20.2134 19.0117H29.2346" stroke="#101010" stroke-width="0.155116" stroke-linecap="round" stroke-linejoin="round"/>
<path d="M6.53601 32.0492C6.53601 31.7065 6.8138 31.4287 7.15648 31.4287H18.0409C18.3836 31.4287 18.6614 31.7065 18.6614 32.0492V40.9937C18.6614 41.3364 18.3836 41.6142 18.0409 41.6142H7.15648C6.8138 41.6142 6.53601 41.3364 6.53601 40.9937V32.0492Z" fill="#00A134"/>
<path d="M20.2134 32.0112H34.6668" stroke="#101010" stroke-width="0.155116" stroke-linecap="round" stroke-linejoin="round"/>
<path d="M20.2134 33.8542H34.6668" stroke="#101010" stroke-width="0.155116" stroke-linecap="round" stroke-linejoin="round"/>
<path d="M20.2134 35.6975H29.2346" stroke="#101010" stroke-width="0.155116" stroke-linecap="round" stroke-linejoin="round"/>
<path d="M6.53601 48.7342C6.53601 48.3916 6.8138 48.1138 7.15648 48.1138H18.0409C18.3836 48.1138 18.6614 48.3916 18.6614 48.7342V57.6788C18.6614 58.0215 18.3836 58.2993 18.0409 58.2993H7.15648C6.8138 58.2993 6.53601 58.0215 6.53601 57.6788V48.7342Z" fill="#00A134"/>
<path d="M20.2134 48.6963H34.6668" stroke="#101010" stroke-width="0.155116" stroke-linecap="round" stroke-linejoin="round"/>
<path d="M20.2134 50.5391H34.6668" stroke="#101010" stroke-width="0.155116" stroke-linecap="round" stroke-linejoin="round"/>
<path d="M20.2134 52.3816H29.2346" stroke="#101010" stroke-width="0.155116" stroke-linecap="round" stroke-linejoin="round"/>
<path d="M6.52551 63.0034C6.52551 62.6497 6.81221 62.363 7.16587 62.363H12.8862C13.2399 62.363 13.5266 62.6497 13.5266 63.0034C13.5266 63.357 13.2399 63.6437 12.8862 63.6437H7.16587C6.81221 63.6437 6.52551 63.357 6.52551 63.0034Z" fill="#FFCA33"/>
<path d="M6.53601 65.225C6.53601 64.8823 6.8138 64.6045 7.15648 64.6045H18.0409C18.3836 64.6045 18.6614 64.8823 18.6614 65.225V74.1695C18.6614 74.5122 18.3836 74.79 18.0409 74.79H7.15648C6.8138 74.79 6.53601 74.5122 6.53601 74.1695V65.225Z" fill="#00A134"/>
<path d="M20.2134 65.1865H34.6668" stroke="#101010" stroke-width="0.155116" stroke-linecap="round" stroke-linejoin="round"/>
<path d="M20.2134 67.0291H34.6668" stroke="#101010" stroke-width="0.155116" stroke-linecap="round" stroke-linejoin="round"/>
<path d="M20.2134 68.8728H29.2346" stroke="#101010" stroke-width="0.155116" stroke-linecap="round" stroke-linejoin="round"/>
</g>
</svg>
