<svg width="56" height="56" viewBox="0 0 56 56" fill="none" xmlns="http://www.w3.org/2000/svg">
<g opacity="0.2">
<path fill-rule="evenodd" clip-rule="evenodd" d="M23 2.88675C26.094 1.10042 29.906 1.10042 33 2.88675L47.2487 11.1132C50.3427 12.8996 52.2487 16.2008 52.2487 19.7735V36.2265C52.2487 39.7992 50.3427 43.1004 47.2487 44.8868L33 53.1133C29.906 54.8996 26.094 54.8996 23 53.1133L8.75129 44.8867C5.65728 43.1004 3.75129 39.7992 3.75129 36.2265V19.7735C3.75129 16.2008 5.65728 12.8996 8.75129 11.1132L23 2.88675Z" fill="white"/>
<mask id="mask0" mask-type="alpha" maskUnits="userSpaceOnUse" x="3" y="1" width="50" height="54">
<path fill-rule="evenodd" clip-rule="evenodd" d="M23 2.88675C26.094 1.10042 29.906 1.10042 33 2.88675L47.2487 11.1132C50.3427 12.8996 52.2487 16.2008 52.2487 19.7735V36.2265C52.2487 39.7992 50.3427 43.1004 47.2487 44.8868L33 53.1133C29.906 54.8996 26.094 54.8996 23 53.1133L8.75129 44.8867C5.65728 43.1004 3.75129 39.7992 3.75129 36.2265V19.7735C3.75129 16.2008 5.65728 12.8996 8.75129 11.1132L23 2.88675Z" fill="white"/>
</mask>
<g mask="url(#mask0)">
</g>
</g>
<path fill-rule="evenodd" clip-rule="evenodd" d="M16.75 22.75C16.75 20.6498 16.75 19.5997 17.1587 18.7975C17.5183 18.0919 18.0919 17.5183 18.7975 17.1587C19.5997 16.75 20.6498 16.75 22.75 16.75H33.25C35.3502 16.75 36.4003 16.75 37.2025 17.1587C37.9081 17.5183 38.4817 18.0919 38.8413 18.7975C39.25 19.5997 39.25 20.6498 39.25 22.75V33.25C39.25 35.3502 39.25 36.4003 38.8413 37.2025C38.4817 37.9081 37.9081 38.4817 37.2025 38.8413C36.4003 39.25 35.3502 39.25 33.25 39.25H22.75C20.6498 39.25 19.5997 39.25 18.7975 38.8413C18.0919 38.4817 17.5183 37.9081 17.1587 37.2025C16.75 36.4003 16.75 35.3502 16.75 33.25V22.75ZM34.25 23.5178L34.6161 23.8839C35.1043 24.372 35.8957 24.372 36.3839 23.8839C36.872 23.3957 36.872 22.6043 36.3839 22.1161L33.8839 19.6161C33.3957 19.128 32.6043 19.128 32.1161 19.6161L29.6161 22.1161C29.128 22.6043 29.128 23.3957 29.6161 23.8839C30.1043 24.372 30.8957 24.372 31.3839 23.8839L31.75 23.5178V26.75C31.75 30.8921 28.3921 34.25 24.25 34.25H20.5C19.8096 34.25 19.25 34.8096 19.25 35.5C19.25 36.1904 19.8096 36.75 20.5 36.75H24.25C29.7728 36.75 34.25 32.2728 34.25 26.75V23.5178Z" fill="white"/>
</svg>
