<svg width="26" height="26" viewBox="0 0 26 26" fill="none" xmlns="http://www.w3.org/2000/svg">
<path fill-rule="evenodd" clip-rule="evenodd" d="M12.3751 0.5C11.3395 0.5 10.5001 1.33947 10.5001 2.375V2.83051C10.5001 3.11569 10.3064 3.36272 10.034 3.44719C9.44522 3.6298 8.87974 3.86533 8.34311 4.14823C8.0908 4.28125 7.77909 4.24356 7.57741 4.04187L7.25476 3.71922C6.52252 2.98699 5.33534 2.98699 4.60311 3.71922L3.71922 4.60311C2.98699 5.33534 2.98699 6.52252 3.71922 7.25476L4.04187 7.57741C4.24356 7.77909 4.28125 8.0908 4.14823 8.34311C3.86534 8.87972 3.62982 9.44517 3.44722 10.0339C3.36274 10.3063 3.11572 10.5 2.83054 10.5H2.375C1.33947 10.5 0.5 11.3395 0.5 12.375V13.625C0.5 14.6605 1.33947 15.5 2.375 15.5H2.83054C3.11571 15.5 3.36274 15.6937 3.44722 15.9661C3.62982 16.5548 3.86534 17.1203 4.14823 17.6569C4.28125 17.9092 4.24356 18.2209 4.04187 18.4226L3.71922 18.7452C2.98699 19.4775 2.98699 20.6647 3.71922 21.3969L4.60311 22.2808C5.33534 23.013 6.52252 23.013 7.25476 22.2808L7.57741 21.9581C7.77909 21.7564 8.0908 21.7188 8.34311 21.8518C8.87974 22.1347 9.44522 22.3702 10.034 22.5528C10.3064 22.6373 10.5001 22.8843 10.5001 23.1695V23.625C10.5001 24.6605 11.3395 25.5 12.3751 25.5H13.6251C14.6606 25.5 15.5001 24.6605 15.5001 23.625V23.1694C15.5001 22.8843 15.6938 22.6372 15.9662 22.5528C16.5549 22.3702 17.1203 22.1346 17.6569 21.8518C17.9092 21.7188 18.2209 21.7564 18.4226 21.9581L18.7452 22.2808C19.4775 23.013 20.6647 23.013 21.3969 22.2808L22.2808 21.3969C23.013 20.6647 23.013 19.4775 22.2808 18.7452L21.9581 18.4226C21.7564 18.2209 21.7188 17.9092 21.8518 17.6569C22.1347 17.1203 22.3702 16.5548 22.5528 15.9661C22.6373 15.6937 22.8843 15.5 23.1695 15.5H23.625C24.6605 15.5 25.5 14.6605 25.5 13.625V12.375C25.5 11.3395 24.6605 10.5 23.625 10.5H23.1695C22.8843 10.5 22.6373 10.3063 22.5528 10.0339C22.3702 9.44517 22.1347 8.87972 21.8518 8.34312C21.7188 8.0908 21.7564 7.77909 21.9581 7.57741L22.2808 7.25476C23.013 6.52252 23.013 5.33534 22.2808 4.60311L21.3969 3.71922C20.6647 2.98699 19.4775 2.98699 18.7452 3.71922L18.4226 4.04187C18.2209 4.24356 17.9092 4.28125 17.6569 4.14823C17.1203 3.86535 16.5549 3.62984 15.9662 3.44724C15.6938 3.36276 15.5001 3.11574 15.5001 2.83056V2.375C15.5001 1.33947 14.6606 0.5 13.6251 0.5H12.3751ZM13 16.75C15.0711 16.75 16.75 15.0711 16.75 13C16.75 10.9289 15.0711 9.25 13 9.25C10.9289 9.25 9.25 10.9289 9.25 13C9.25 15.0711 10.9289 16.75 13 16.75Z" fill="#D7D8D7"/>
</svg>
