<svg width="60" height="60" viewBox="0 0 60 60" fill="none" xmlns="http://www.w3.org/2000/svg">
<path d="M30 0C13.4583 0 0 13.4583 0 30C0 46.5417 13.4583 60 30 60C46.5417 60 60 46.5417 60 30C60 13.4583 46.5417 0 30 0Z" fill="#333333"/>
<path d="M29.9999 2.5C45.1635 2.5 57.5 14.8364 57.5 30C57.5 36.0361 55.5221 41.606 52.2123 46.1462C51.9232 45.9582 51.6375 45.7866 51.3476 45.6372C46.3378 43.0653 38.5668 40 29.9999 40C21.433 40 13.662 43.0653 8.65105 45.6385C8.36195 45.7873 8.0766 45.9584 7.78761 46.1462C4.47789 41.6058 2.49988 36.0361 2.49988 30C2.49988 14.8364 14.8363 2.5 29.9999 2.5Z" fill="#E5F6EB"/>
<path d="M30.0005 57.5C21.7785 57.5 14.408 53.8545 9.36438 48.1164C9.50817 48.0294 9.65313 47.9347 9.7954 47.8613C14.5598 45.415 21.9329 42.5 30.0005 42.5C38.0682 42.5 45.4411 45.415 50.2043 47.8602C50.3473 47.934 50.4926 48.0288 50.6368 48.1163C45.593 53.8543 38.2225 57.5 30.0005 57.5Z" fill="#00A134"/>
<path d="M30 37.5C38.2843 37.5 45 30.7843 45 22.5C45 14.2157 38.2843 7.5 30 7.5C21.7157 7.5 15 14.2157 15 22.5C15 30.7843 21.7157 37.5 30 37.5Z" fill="#333333"/>
<path d="M29.9998 35.0001C36.9034 35.0001 42.4999 29.4036 42.4999 22.5C42.4999 15.5965 36.9034 10 29.9998 10C23.0962 10 17.4998 15.5965 17.4998 22.5C17.4998 29.4036 23.0962 35.0001 29.9998 35.0001Z" fill="#00A134"/>
<path fill-rule="evenodd" clip-rule="evenodd" d="M23.6666 25.6665H37.6666C38.7712 25.6665 39.6666 26.5619 39.6666 27.6665V35.6665C39.6666 36.7711 38.7712 37.6665 37.6666 37.6665H23.6666C22.5621 37.6665 21.6666 36.7711 21.6666 35.6665V27.6665C21.6666 26.5619 22.5621 25.6665 23.6666 25.6665ZM30.6666 35.6665C32.8758 35.6665 34.6666 33.8756 34.6666 31.6665C34.6666 29.4574 32.8758 27.6665 30.6666 27.6665C28.4575 27.6665 26.6666 29.4574 26.6666 31.6665C26.6666 33.8756 28.4575 35.6665 30.6666 35.6665Z" fill="white"/>
<path opacity="0.3" d="M32.6666 22.6665H28.6666C28.1143 22.6665 27.6666 23.1142 27.6666 23.6665C27.6666 24.2188 28.1143 24.6665 28.6666 24.6665H32.6666C33.2189 24.6665 33.6666 24.2188 33.6666 23.6665C33.6666 23.1142 33.2189 22.6665 32.6666 22.6665Z" fill="white"/>
<path opacity="0.3" d="M30.6666 33.6665C31.7712 33.6665 32.6666 32.7711 32.6666 31.6665C32.6666 30.5619 31.7712 29.6665 30.6666 29.6665C29.5621 29.6665 28.6666 30.5619 28.6666 31.6665C28.6666 32.7711 29.5621 33.6665 30.6666 33.6665Z" fill="white"/>
</svg>
