<svg width="28" height="28" viewBox="0 0 28 28" fill="none" xmlns="http://www.w3.org/2000/svg">
<path d="M14 0C6.28053 0 0 6.28053 0 14C0 21.7195 6.28053 28 14 28C21.7195 28 28 21.7195 28 14C28 6.28053 21.7195 0 14 0Z" fill="white"/>
<path d="M13.9999 1.1665C21.0762 1.1665 26.8332 6.92351 26.8332 13.9999C26.8332 16.8167 25.9102 19.416 24.3657 21.5348C24.2307 21.447 24.0974 21.3669 23.9621 21.2972C21.6242 20.097 17.9977 18.6665 13.9999 18.6665C10.002 18.6665 6.37549 20.097 4.03705 21.2978C3.90214 21.3672 3.76897 21.4471 3.63411 21.5348C2.08957 19.4159 1.1665 16.8167 1.1665 13.9999C1.1665 6.92351 6.92351 1.1665 13.9999 1.1665Z" fill="#00A134"/>
<path d="M14.0003 26.8335C10.1634 26.8335 6.72381 25.1323 4.37012 22.4545C4.43722 22.4139 4.50487 22.3697 4.57126 22.3354C6.79463 21.1938 10.2354 19.8335 14.0003 19.8335C17.7652 19.8335 21.2059 21.1938 23.4288 22.3349C23.4955 22.3694 23.5633 22.4136 23.6306 22.4544C21.2768 25.1322 17.8372 26.8335 14.0003 26.8335Z" fill="#E5F6EB"/>
<path d="M14 17.5C17.866 17.5 21 14.366 21 10.5C21 6.63401 17.866 3.5 14 3.5C10.134 3.5 7 6.63401 7 10.5C7 14.366 10.134 17.5 14 17.5Z" fill="white"/>
<path d="M13.9999 16.3332C17.2215 16.3332 19.8332 13.7215 19.8332 10.4999C19.8332 7.27818 17.2215 4.6665 13.9999 4.6665C10.7782 4.6665 8.1665 7.27818 8.1665 10.4999C8.1665 13.7215 10.7782 16.3332 13.9999 16.3332Z" fill="#E5F6EB"/>
</svg>
