<svg width="28" height="28" viewBox="0 0 28 28" fill="none" xmlns="http://www.w3.org/2000/svg">
<path d="M14 0C6.28053 0 0 6.28053 0 14C0 21.7195 6.28053 28 14 28C21.7195 28 28 21.7195 28 14C28 6.28053 21.7195 0 14 0Z" fill="white"/>
<path d="M14 1.16663C21.0763 1.16663 26.8333 6.92363 26.8333 14C26.8333 16.8168 25.9103 19.4161 24.3658 21.5349C24.2309 21.4471 24.0975 21.367 23.9622 21.2973C21.6243 20.0971 17.9979 18.6666 14 18.6666C10.0021 18.6666 6.37561 20.0971 4.03717 21.2979C3.90226 21.3674 3.76909 21.4472 3.63424 21.5349C2.0897 19.416 1.16663 16.8168 1.16663 14C1.16663 6.92363 6.92363 1.16663 14 1.16663Z" fill="#00A134"/>
<path d="M14.0002 26.8334C10.1633 26.8334 6.72369 25.1322 4.37 22.4544C4.4371 22.4137 4.50475 22.3696 4.57114 22.3353C6.79451 21.1937 10.2353 19.8334 14.0002 19.8334C17.7651 19.8334 21.2058 21.1937 23.4286 22.3348C23.4954 22.3692 23.5632 22.4135 23.6304 22.4543C21.2767 25.132 17.8371 26.8334 14.0002 26.8334Z" fill="#E5F6EB"/>
<path d="M14 17.5C17.866 17.5 21 14.366 21 10.5C21 6.63401 17.866 3.5 14 3.5C10.134 3.5 7 6.63401 7 10.5C7 14.366 10.134 17.5 14 17.5Z" fill="white"/>
<path d="M14 16.3333C17.2217 16.3333 19.8333 13.7216 19.8333 10.5C19.8333 7.27831 17.2217 4.66663 14 4.66663C10.7783 4.66663 8.16663 7.27831 8.16663 10.5C8.16663 13.7216 10.7783 16.3333 14 16.3333Z" fill="#E5F6EB"/>
</svg>
