<svg width="54" height="54" viewBox="0 0 54 54" fill="none" xmlns="http://www.w3.org/2000/svg">
<path d="M27 0C12.1125 0 0 12.1125 0 27C0 41.8875 12.1125 54 27 54C41.8875 54 54 41.8875 54 27C54 12.1125 41.8875 0 27 0Z" fill="#00A134"/>
<path d="M26.9999 2.25C40.6471 2.25 51.75 13.3528 51.75 27C51.75 32.4325 49.9698 37.4454 46.9911 41.5316C46.7309 41.3623 46.4738 41.2079 46.2128 41.0735C41.7041 38.7587 34.7101 36 26.9999 36C19.2897 36 12.2958 38.7587 7.78593 41.0746C7.52574 41.2086 7.26893 41.3626 7.00884 41.5316C4.03009 37.4452 2.24988 32.4325 2.24988 27C2.24988 13.3528 13.3527 2.25 26.9999 2.25Z" fill="white"/>
<path d="M27.0005 51.75C19.6007 51.75 12.9672 48.4691 8.42798 43.3048C8.55739 43.2264 8.68785 43.1412 8.81589 43.0752C13.1038 40.8735 19.7396 38.25 27.0005 38.25C34.2614 38.25 40.8971 40.8735 45.1839 43.0741C45.3126 43.1406 45.4434 43.2259 45.5731 43.3047C41.0337 48.4689 34.4003 51.75 27.0005 51.75Z" fill="#00A134"/>
<path d="M27 33.75C34.4558 33.75 40.5 27.7058 40.5 20.25C40.5 12.7942 34.4558 6.75 27 6.75C19.5442 6.75 13.5 12.7942 13.5 20.25C13.5 27.7058 19.5442 33.75 27 33.75Z" fill="#00A134"/>
<path d="M26.9999 31.5001C33.2132 31.5001 38.25 26.4633 38.25 20.25C38.25 14.0368 33.2132 9 26.9999 9C20.7867 9 15.7499 14.0368 15.7499 20.25C15.7499 26.4633 20.7867 31.5001 26.9999 31.5001Z" fill="#00A134"/>
</svg>
